<svg xmlns="http://www.w3.org/2000/svg" viewBox="0 0 24 24">
  <path d="M6.916 12.496l.437-.683.437.683.455-.073-.651-1.132.596-1.083-.442-.061-.395.691-.396-.691-.442.061.596 1.083-.65 1.132.455.073zm3.08-.072l.455.073.437-.683.437.683.455-.073-.651-1.132.596-1.083-.442-.061-.395.691-.396-.691-.442.061.596 1.083-.65 1.132zm3.081-.001l.455.073.437-.683.437.683.455-.073-.651-1.132.596-1.083-.442-.061-.395.691-.396-.691-.442.061.596 1.083-.65 1.132zM18.911 11.931h-1.25c-.466 0-.79.012-.79.506v.614h2.04v.506h-2.04v1.045H16V11.972c0-.639.254-.876.96-.876h1.951v.835zm-13.573-.835h-.888v2.671h.888c.548 0 .847-.278.847-1.139v-.393c0-.86-.3-1.139-.847-1.139zm-.189.619c.227 0 .267.119.267.495v.445c0 .374-.04.493-.267.493h-.097v-1.433h.097zm11.173.32v-.939h-.692v3.506h.692v-1.616c0-.373.205-.533.512-.533.102 0 .204.015.307.043v-.756a.525.525 0 0 0-.239-.054c-.262 0-.478.123-.58.349zm-5.488-.688h-.693v2.5c0 .639.253.875.959.875h1.951v-.835h-1.264c-.466 0-.953.012-.953-.506v-2.034zm-2.32 1.35v.393c0 .861-.3 1.14-.847 1.14h-.888v-2.672h.888c.548 0 .847.278.847 1.139zm-.6-.025c0-.374-.04-.493-.267-.493h-.097v1.431h.097c.227 0 .267-.117.267-.493v-.445zm17.56-6.772L13.856 0 2.142 5.9l-.001 12.2L13.856 24l11.716-5.9-.001-12.2zM13.94 21.88l-10.16-5.126V7.128l10.16 5.125v9.626z" fill="#f68536"/>
</svg> 