<svg xmlns="http://www.w3.org/2000/svg" viewBox="0 0 24 24">
  <path d="M9.18 7.032C8.242 6.297 7.865 5.088 8.16 4.11c-.593.222-1.17.596-1.662 1.112C5.11 6.838 5 9.253 5 9.253s1.143.164 2.216-.28c1.07-.446 1.964-1.94 1.964-1.94zm5.64 0c.937-.736 1.314-1.945 1.018-2.923.593.222 1.17.596 1.662 1.112C18.89 6.838 19 9.253 19 9.253s-1.143.164-2.216-.28c-1.07-.446-1.964-1.94-1.964-1.94z" fill="#4e7dc2"/>
  <path d="M17.71 9.025s-1.142.164-2.215-.28c-.552-.228-1.036-.708-1.396-1.22C13.65 8.358 12.578 9 11.5 9s-2.15-.642-2.6-1.475c-.36.512-.844.992-1.397 1.22-1.072.444-2.216.28-2.216.28.006.183.032.454.036.633.047 1.747.67 3.461 1.887 4.81.924 1.02 2.147 1.6 3.598 1.732 1.42.13 2.487-.254 3.252-1.137C14.77 14.316 15.08 13.6 15.28 12.8c.17-.652.2-1.31.201-1.98-.001-.267.003-.6.003-.89 0-.256-.015-.64-.043-.905h2.77z" fill="#4e7dc2"/>
  <path d="M7 13.803C7 15.565 9.032 17 11.5 17c2.468 0 4.5-1.435 4.5-3.197 0-1.048-.604-1.58-1.824-2.064C12.93 11.27 10.155 11.343 9 13c-.208.3-.318.595-.318.88 0 .447.37.842.916.842.553 0 .828-.365.828-.822 0-.3-.16-.495-.16-.63 0-.162.01-.175.07-.175.28 0 1.232 1.077 1.232 1.43 0 .27-.56.552-1.456.552-1.453 0-2.206-1.378-2.206-2.228 0-1.146 1.154-2.273 3.121-2.273 1.966 0 3.932.655 3.932 2.547 0 2.365-2.064 3.772-4.333 3.772S6 15.62 6 13.322c0-.4.05-.798.152-1.182.08-.304.412-.422.693-.3.38.166.394.492.28.802C7.03 13.012 7 13.396 7 13.803z" fill="#cb5a48"/>
</svg> 