<svg xmlns="http://www.w3.org/2000/svg" viewBox="0 0 598.88 1333.33">
  <path d="M295.27 3.65l35.58 66.83c8 12.33 16.67 23.25 24.5 35.42 18.25 28.33 33.83 57.92 46 90.42 14.92 39.75 23.75 80.67 26.92 122.67 5.25 67.25-5.83 132.67-36.5 193.08-15.33 30.25-34.83 57.83-57.67 82.92-16.42 18-33.33 35.25-47.17 55.25-26.83 38.92-43.33 82.83-50.83 130.25-1.25 8-1.92 16.08-2.75 24.17v15.17c-.05-6.46-.05-12.92 0-19.38.17 6.5.5 12.97 1 19.41.33 39.42 6.22 78 18.42 115.08 11 33.25 26.58 64.17 46.92 92.08 13.33 18.25 28.25 34.92 43.58 51.33 9.5 10.17 19.17 20.17 28.5 30.42 3.5 3.83 3.5 3.5.33 7.58-14.67 18.83-29.83 37.33-46.17 54.83-4.17 4.5-4.25 4.33-9.33 1.17-12.42-7.83-24.75-15.75-37.17-23.67-55.75-35.5-103-81.08-139.75-136.42-33.25-50.08-54.83-104.92-65.17-164.08-4.75-27.25-7.33-54.83-7.25-82.5.17-60.92 13.83-119.25 41.42-173.42 14.58-28.58 32.33-55 50.75-81 13.17-18.67 26.67-36.92 36.5-57.5 18.25-38.17 24.83-78.58 17.75-120.58-5.83-34.67-19.17-66.58-36.83-96.67-15.33-26.17-33.17-50.58-52.75-73.92-5.25-6.25-10.67-12.25-16.42-18-.83-.83-3.08-1.83-2.17-3.42.67-1.25 2.75-.83 4.17-.83h7.17c44.5-.02 89-.02 133.5 0z" fill="#599636"/>
  <path d="M295.27 1333.33c0-13.75-.08-27.5.08-41.25 0-2.83-1.08-3.5-3.5-4.33-35.58-12.17-65.33-33-89.25-61.5-29.08-34.67-43.08-75.08-43.83-120.25-.67-40.25 12.42-75.67 35.17-108 15.5-22 33.67-41.58 52.25-60.67 18.42-18.92 35.58-38.75 49.25-61.58 24.25-40.33 35.92-84.58 37.25-130.42.08-3.33-.58-4.67-3.75-6.25-32.33-16-63.58-33.58-91.17-57-56.5-47.75-99.67-106.17-130.33-174.67-20.33-45.58-32.83-93.25-38.25-142.75-1-9.17-1.5-18.33-2.25-27.5v-70.33c.83-12.25 1.67-24.58 2.92-36.75 7.42-71.33 30.17-137.42 69.75-197.42 6.67-10.08 14-19.83 21.58-29.42 2.17-2.75 2.33-2.92 4.58.17 35.17 48.83 79.33 87.33 130 118.17 35 21.33 71.92 38.25 111 49.83 28.25 8.33 57.08 13.17 86.33 15.33 7.17.5 14.33.58 21.5.83h32.08c7.17-.33 14.33-.5 21.5-1 34.25-2.33 67.58-9.33 99.92-21.25 59.33-21.92 111.67-56.83 155.17-105 12.67-14 12.67-14 27.17-1.17 12.83 11.33 23.83 24.25 34.08 37.75 32.75 43.17 58.25 90.92 76.75 142.42 11.75 32.67 19.83 66.33 24.17 100.83 2.75 21.83 4.17 43.75 4.17 65.83v40.5c-1.17 35.83-5.17 71.42-12.75 106.42-18.58 85.33-55.83 160.83-112.67 225.33-16.92 19.17-35.17 36.83-55.33 52.67-60.58 47.67-128.92 77.08-205.33 85.92-14.17 1.67-28.33 2.33-42.58 3.5h-13.33l-19.17-.08h-3c-10.67-.67-21.33-1.08-32-2.17-15.17-1.5-30.25-3.5-45.08-7-4-.92-4.5.33-4.5 3.92.25 49.75 0 99.5.08 149.25.33 28.08 4.17 55.67 12.67 82.5 4.25 13.42 10.17 25.92 17.58 37.75 16.5 26.17 38.58 45.92 66.58 58.42 7.67 3.42 15.58 6.33 23.75 8.25 3.5.5 4.75 2.25 4.67 5.67-.17 12.58-.08 25.17-.08 37.75z" fill="#6cac48"/>
</svg> 