<svg xmlns="http://www.w3.org/2000/svg" viewBox="0 0 180 180">
  <path d="M141.37,93.65a50.9,50.9,0,0,0-1-9.65H75.55v19.55h36.45a31.23,31.23,0,0,1-13.5,23.4v19.55h22.55C134.87,127.2,141.37,111.9,141.37,93.65Z" fill="#ffffff"/>
  <path d="M90 180c-49.7 0-90-40.3-90-90S40.3 0 90 0s90 40.3 90 90-40.3 90-90 90zm30.3-82.5c-11.4 0-20.6-9.2-20.6-20.6s9.2-20.6 20.6-20.6 20.6 9.2 20.6 20.6-9.2 20.6-20.6 20.6zm-60.6 0c-11.4 0-20.6-9.2-20.6-20.6s9.2-20.6 20.6-20.6 20.6 9.2 20.6 20.6-9.2 20.6-20.6 20.6z" fill="#ffffff"/>
  <path d="M139.3 42.7L82.3 124.8 41.7 90l-5.8 3.4 46.5 39.1 62.3-90.6z" fill="#ffffff"/>
</svg> 