<svg xmlns="http://www.w3.org/2000/svg" viewBox="0 0 512 512">
  <path d="M314 36.38c-18.59-3.06-45.8-4.47-64.27-4.38a311.09 311.09 0 0 0-51.66 4.38c-45.74 8-54.07 24.7-54.07 55.54V128h112v16H107.62C66.06 144 32.33 169.56 24.48 224c-9.49 65.9 1.82 106.05 43.56 106.05H96V275.83c0-36.06 30.39-67.83 65.65-67.83H314c29.24 0 52-25.22 52-55.94V91.92c0-29.92-25.25-52.33-52-55.54zM209.62 72.13a20.93 20.93 0 1 1 20.3-21.13 20.63 20.63 0 0 1-20.3 21.13z" fill="#3775a9"/>
  <path d="M186.15 366.46V312.8c0-37.32-31.69-68.8-67.65-68.8H66.34c-29.88 0-54.34 24.8-54.34 54.34V399c0 28.73 24.94 45.6 54.34 53.79 35.23 9.82 68.95 11.54 96.16 0 18.07-7.65 35.65-23.06 35.65-53.79v-16H146Z" fill="#ffda4b"/>
  <path d="M188.66 39.62c18.59-3.06 38.13-3.73 64.27-4.32 26.14.59 45.68 1.26 64.27 4.32 45.93 7.57 54.07 23.46 54.07 55.54V128h-224V95.16c0-32.08 8.14-47.97 41.39-55.54zM390.2 144c41.46 0 74.13 24.39 74.13 67.83V312.8c0 35.66-29.62 55.81-66.27 66.32-34.57 9.83-65.72 9.06-97.7 0-21.21-6-41.43-17.52-41.43-45.77v-16H368v-16H203.91c-32.93 0-54.92-28.3-54.92-63.81V168.84C149 137.89 174.62 115 203.91 115.05l186.29-.05c-.01 0 0 29 0 29z" fill="#3775a9"/>
  <circle cx="302.57" cy="440" r="20.92" fill="#ffda4b"/>
</svg> 